HIERARCHY
ROOT Hips
{
	OFFSET 0.000000 0.000000 0.000000
	CHANNELS 6 Xposition Yposition Zposition Zrotation Yrotation Xrotation 
	JOINT LHipJoint
	{
		OFFSET 0.000000 0.000000 0.000000
		CHANNELS 3 Zrotation Yrotation Xrotation
		JOINT LeftUpLeg
		{
			OFFSET 1.363060 -1.794630 0.839290
			CHANNELS 3 Zrotation Yrotation Xrotation
			JOINT LeftLeg
			{
				OFFSET 2.448110 -6.726130 0.000000
				CHANNELS 3 Zrotation Yrotation Xrotation
				JOINT LeftFoot
				{
					OFFSET 2.562200 -7.039590 0.000000
					CHANNELS 3 Zrotation Yrotation Xrotation
					JOINT LeftToeBase
					{
						OFFSET 0.157640 -0.433110 2.322550
						CHANNELS 3 Zrotation Yrotation Xrotation
						End Site
						{
							OFFSET 0.000000 0.000000 0.000000
						}
					}
				}
			}
		}
	}
	JOINT RHipJoint
	{
		OFFSET 0.000000 0.000000 0.000000
		CHANNELS 3 Zrotation Yrotation Xrotation
		JOINT RightUpLeg
		{
			OFFSET -1.305520 -1.794630 0.839290
			CHANNELS 3 Zrotation Yrotation Xrotation
			JOINT RightLeg
			{
				OFFSET -2.542530 -6.985550 0.000000
				CHANNELS 3 Zrotation Yrotation Xrotation
				JOINT RightFoot
				{
					OFFSET -2.568260 -7.056230 0.000000
					CHANNELS 3 Zrotation Yrotation Xrotation
					JOINT RightToeBase
					{
						OFFSET -0.164730 -0.452590 2.363150
						CHANNELS 3 Zrotation Yrotation Xrotation
						End Site
						{
							OFFSET 0.000000 0.000000 0.000000
						}
					}
				}
			}
		}
	}
	JOINT LowerBack
	{
		OFFSET 0.000000 0.000000 0.000000
		CHANNELS 3 Zrotation Yrotation Xrotation
		JOINT Spine
		{
			OFFSET 0.028270 2.035590 -0.193380
			CHANNELS 3 Zrotation Yrotation Xrotation
			JOINT Spine1
			{
				OFFSET 0.056720 2.048850 -0.042750
				CHANNELS 3 Zrotation Yrotation Xrotation
				JOINT Neck
				{
					OFFSET 0.000000 0.000000 0.000000
					CHANNELS 3 Zrotation Yrotation Xrotation
					JOINT Neck1
					{
						OFFSET -0.054170 1.746240 0.172020
						CHANNELS 3 Zrotation Yrotation Xrotation
						JOINT Head
						{
							OFFSET 0.104070 1.761360 -0.123970
							CHANNELS 3 Zrotation Yrotation Xrotation
							End Site
							{
								OFFSET 0.000000 0.000000 0.000000
							}
						}
					}
				}
				JOINT LeftShoulder
				{
					OFFSET 0.000000 0.000000 0.000000
					CHANNELS 3 Zrotation Yrotation Xrotation
					JOINT LeftArm
					{
						OFFSET 3.362410 1.200890 -0.311210
						CHANNELS 3 Zrotation Yrotation Xrotation
						JOINT LeftForeArm
						{
							OFFSET 4.983000 -0.000000 -0.000000
							CHANNELS 3 Zrotation Yrotation Xrotation
							JOINT LeftHand
							{
								OFFSET 3.483560 -0.000000 -0.000000
								CHANNELS 3 Zrotation Yrotation Xrotation
								JOINT LeftFingerBase
								{
									OFFSET 0.000000 0.000000 0.000000
									CHANNELS 3 Zrotation Yrotation Xrotation
									JOINT LeftHandIndex1
									{
										OFFSET 0.715260 -0.000000 -0.000000
										CHANNELS 3 Zrotation Yrotation Xrotation
										End Site
										{
											OFFSET 0.000000 0.000000 0.000000
										}
									}
								}
								JOINT LThumb
								{
									OFFSET 0.000000 0.000000 0.000000
									CHANNELS 3 Zrotation Yrotation Xrotation
									End Site
									{
										OFFSET 0.000000 0.000000 0.000000
									}
								}
							}
						}
					}
				}
				JOINT RightShoulder
				{
					OFFSET 0.000000 0.000000 0.000000
					CHANNELS 3 Zrotation Yrotation Xrotation
					JOINT RightArm
					{
						OFFSET -3.136600 1.374050 -0.404650
						CHANNELS 3 Zrotation Yrotation Xrotation
						JOINT RightForeArm
						{
							OFFSET -5.241900 -0.000000 -0.000000
							CHANNELS 3 Zrotation Yrotation Xrotation
							JOINT RightHand
							{
								OFFSET -3.444170 -0.000000 -0.000000
								CHANNELS 3 Zrotation Yrotation Xrotation
								JOINT RightFingerBase
								{
									OFFSET 0.000000 0.000000 0.000000
									CHANNELS 3 Zrotation Yrotation Xrotation
									JOINT RightHandIndex1
									{
										OFFSET -0.622530 -0.000000 -0.000000
										CHANNELS 3 Zrotation Yrotation Xrotation
										End Site
										{
											OFFSET 0.000000 0.000000 0.000000
										}
									}
								}
								JOINT RThumb
								{
									OFFSET 0.000000 0.000000 0.000000
									CHANNELS 3 Zrotation Yrotation Xrotation
									End Site
									{
										OFFSET 0.000000 0.000000 0.000000
									}
								}
							}
						}
					}
				}
			}
		}
	}
}
MOTION
Frames: 4
Frame Time: 0.008333
-10.909626 16.503476 -2.478650 154.001357 87.113622 164.509850 -11.115762 5.759287 0.540445 -5.524533 11.374142 2.086623 -1.305741 1.976743 30.102399 -0.136300 -8.550538 9.066660 -2.046800 -0.000000 -85.450201 8.579167 -0.535782 4.438425 12.834407 7.513182 -42.269963 1.404078 -1.664955 31.856869 -2.490155 -9.599760 -7.387146 -0.938400 0.000000 -5.310000 6.569962 -6.922438 -6.387392 1.379383 -7.538381 -3.934694 -4.914424 -7.601022 1.331670 11.264678 -20.478816 -10.651526 -2.357807 -0.143066 -0.695718 0.000000 0.000000 0.000000 5.055067 0.129036 0.474812 -35.265362 -17.147656 -8.296737 -0.770702 -69.733199 -0.085146 10.814197 -0.578066 -0.099316 -0.116515 0.475740 -0.000000 0.000000 0.000000 0.000000 0.000000 0.000000 0.000000 14.824126 -20.583349 1.531219 54.253518 -21.260322 -23.641810 3.485368 31.745264 -0.004720 -3.205905 -1.380110 0.040040 0.157049 -0.028902 -0.000000 0.000000 0.000000 0.000000 0.000000 0.000000 0.000000 
-10.745121 16.472679 -2.472723 160.322535 87.228898 170.664552 -11.304100 5.841638 0.480862 -4.611921 11.729424 1.023026 -1.120301 2.177796 32.880745 -0.050387 -9.243916 10.648726 -2.507100 -0.000000 -86.114300 8.546070 -0.450105 4.346001 13.254004 7.793422 -42.370379 1.301594 -1.808568 34.047128 -2.598150 -9.858807 -8.602514 -0.680500 -0.000000 -3.992800 6.898584 -6.829129 -6.276312 1.403175 -7.469719 -3.933804 -5.061501 -7.524607 1.265485 11.495259 -20.236809 -10.663077 -2.484560 -0.153883 -0.700996 0.000000 0.000000 0.000000 5.053367 0.008213 0.475415 -36.817425 -16.294881 -7.684728 -0.827277 -69.806510 -0.082581 10.758805 -0.568652 -0.096888 -0.117146 0.464651 -0.000000 0.000000 0.000000 0.000000 0.000000 0.000000 0.000000 15.431865 -20.294475 1.526710 54.644608 -20.333107 -23.401247 3.480146 31.663338 -0.005017 -3.220648 -1.542095 0.044934 0.153416 -0.027676 -0.000000 0.000000 0.000000 0.000000 0.000000 0.000000 0.000000 
-10.587897 16.439629 -2.467351 167.313699 87.345112 177.428336 -11.543500 5.904219 0.383804 -3.625076 12.122214 -0.078002 -0.932480 2.387566 35.804917 0.058811 -9.812881 12.259649 -2.987100 -0.000000 -85.762200 8.467030 -0.356408 4.195686 13.797324 7.995491 -42.323069 1.223149 -1.932279 36.179680 -2.696029 -10.044254 -9.981756 -0.368600 -0.000000 -2.672200 7.216087 -6.733637 -6.053542 1.417274 -7.394901 -3.914672 -5.225706 -7.443553 1.181172 11.755759 -19.927301 -10.667147 -2.618487 -0.165227 -0.705622 0.000000 0.000000 0.000000 5.080708 -0.153556 0.485155 -38.364017 -15.385537 -7.117340 -0.883274 -69.798947 -0.080161 10.719842 -0.559787 -0.094580 -0.117544 0.453311 -0.000000 0.000000 0.000000 0.000000 0.000000 0.000000 0.000000 16.076122 -19.938752 1.533712 55.090292 -19.292608 -23.191980 3.469892 31.514576 -0.005139 -3.261195 -1.631081 0.048028 0.149275 -0.027158 -0.000000 0.000000 0.000000 0.000000 0.000000 0.000000 0.000000 
-10.437922 16.404127 -2.462303 174.646687 87.412662 -175.531090 -11.841732 5.931594 0.254476 -2.579142 12.522224 -1.195152 -0.741094 2.601719 38.848339 0.187493 -10.151329 13.821686 -3.429300 -0.000001 -84.330800 8.328254 -0.277667 3.987511 14.460144 8.083323 -42.106312 1.170005 -2.036680 38.194927 -2.786728 -10.172191 -11.468994 -0.018400 -0.000000 -1.349700 7.496857 -6.647508 -5.722899 1.418813 -7.323718 -3.877459 -5.403696 -7.368532 1.078942 12.041540 -19.555367 -10.659665 -2.759001 -0.177067 -0.708460 0.000000 0.000000 0.000000 5.132061 -0.364532 0.505532 -39.891976 -14.436163 -6.589846 -0.937773 -69.695553 -0.077987 10.711165 -0.554681 -0.092891 -0.117852 0.441815 -0.000000 0.000000 0.000000 0.000000 0.000000 0.000000 0.000000 16.753618 -19.529726 1.550029 55.584117 -18.139943 -23.001613 3.453328 31.294445 -0.005075 -3.335767 -1.636660 0.049223 0.144602 -0.027337 -0.000000 0.000000 0.000000 0.000000 0.000000 0.000000 0.000000 
